Coordinates
version=1
nRows=22
nColumns=24
inDegrees=yes

Units are S.I. units (second, meters, Newtons, ...)
Angles are in degrees.

endheader
time	pelvis_tilt	pelvis_list	pelvis_rotation	pelvis_tx	pelvis_ty	pelvis_tz	hip_flexion_r	hip_adduction_r	hip_rotation_r	knee_angle_r	ankle_angle_r	subtalar_angle_r	mtp_angle_r	hip_flexion_l	hip_adduction_l	hip_rotation_l	knee_angle_l	ankle_angle_l	subtalar_angle_l	mtp_angle_l	lumbar_extension	lumbar_bending	lumbar_rotation
      1.52533333	      5.80174216	      3.12173126	     -0.19951280	      0.52329223	      1.01138651	      0.32292398	     10.15089923	     -3.68698287	     -0.10690345	    -62.94867354	     -1.08710142	    -14.68997137	     -3.40535644	      1.15473922	      8.62037823	      3.86329005	    -12.22045397	      2.00375503	    -15.69882877	      0.83348927	     -5.32956219	     -1.09896386	      5.56191931
      1.52950000	      5.86617572	      2.99100166	     -0.05170095	      0.52807587	      1.01204536	      0.32261605	     10.65696187	     -3.52105908	     -0.10974051	    -62.53968392	     -0.57157760	    -14.77183637	     -3.43534360	      0.59276204	      8.47362902	      4.03947182	    -11.88245263	      2.06712094	    -15.64842245	      0.83634920	     -5.42168568	     -0.92031091	      5.47294799
      1.53366667	      5.99875496	      2.88594172	      0.08502529	      0.53286552	      1.01276996	      0.32233178	     11.07142174	     -3.38156674	     -0.09911364	    -62.08087185	     -0.08980974	    -14.86200536	     -3.52019103	     -0.07310018	      8.35272709	      4.23994351	    -11.47889182	      2.10705514	    -15.66337081	      0.83722672	     -5.59202984	     -0.79534328	      5.27260877
      1.53783333	      6.04841978	      2.74999733	      0.23672961	      0.53761266	      1.01334739	      0.32204266	     11.56829789	     -3.20590615	     -0.09660135	    -61.58317998	      0.39394022	    -14.91849389	     -3.55524983	     -0.60452360	      8.19269633	      4.41251635	    -11.16056336	      2.19060650	    -15.60440173	      0.83927082	     -5.67122756	     -0.61932490	      5.18379747
      1.54200000	      6.17224516	      2.65198784	      0.37300423	      0.54236314	      1.01396265	      0.32176433	     11.97258827	     -3.07664742	     -0.08352545	    -61.05249664	      0.85077621	    -14.97839678	     -3.62953675	     -1.23950596	      8.07217316	      4.59425152	    -10.79216305	      2.26841726	    -15.58498783	      0.83939992	     -5.84184775	     -0.50097541	      4.98856095
      1.54616667	      6.21268756	      2.51945715	      0.53536794	      0.54710109	      1.01444563	      0.32146776	     12.45084339	     -2.91057812	     -0.09524576	    -60.47409469	      1.28172709	    -15.01509618	     -3.66570984	     -1.74970507	      7.90848696	      4.75768787	    -10.48871653	      2.34074172	    -15.51760484	      0.84057589	     -5.90809951	     -0.32051024	      4.89481470
      1.55033333	      6.34874315	      2.41611342	      0.68361567	      0.55183646	      1.01502661	      0.32119915	     12.80467911	     -2.77477091	     -0.09155695	    -59.84640415	      1.70420099	    -15.06049385	     -3.73982671	     -2.38441941	      7.77315558	      4.93294898	    -10.14120533	      2.42400797	    -15.48617490	      0.83979914	     -6.08624799	     -0.20694757	      4.69513817
      1.55450000	      6.40723044	      2.30046168	      0.84056315	      0.55654703	      1.01544443	      0.32091419	     13.23893985	     -2.63048058	     -0.09841297	    -59.19463565	      2.08829991	    -15.09400398	     -3.80058744	     -2.90963218	      7.62326053	      5.09653877	     -9.83768361	      2.50906271	    -15.43600823	      0.83973474	     -6.18073459	     -0.05783561	      4.55619916
      1.55866667	      6.50535462	      2.21762161	      0.98189475	      0.56124918	      1.01586413	      0.32063738	     13.62293687	     -2.52776730	     -0.09879892	    -58.51969865	      2.44255799	    -15.13752739	     -3.90630001	     -3.49307272	      7.50803296	      5.27049005	     -9.49995615	      2.59089739	    -15.40847923	      0.83688618	     -6.33200493	      0.06508483	      4.34334349
      1.56283333	      6.59682366	      2.10956668	      1.13882959	      0.56594583	      1.01625831	      0.32035415	     13.98883670	     -2.39612877	     -0.11278079	    -57.78690113	      2.77419690	    -15.18324106	     -4.01196517	     -4.04984053	      7.36053716	      5.43170132	     -9.19887571	      2.68471130	    -15.36197625	      0.83458463	     -6.46682070	      0.20740262	      4.17891420
      1.56700000	      6.64444403	      2.00465684	      1.30345066	      0.57062314	      1.01655565	      0.32008129	     14.38988394	     -2.26806136	     -0.12880750	    -57.02260450	      3.09608354	    -15.22712094	     -4.07627321	     -4.53586733	      7.21317863	      5.58259088	     -8.93964214	      2.77459536	    -15.29955929	      0.83442262	     -6.54878821	      0.34342307	      4.06991846
      1.57116667	      6.70576836	      1.91439400	      1.45887730	      0.57529411	      1.01681881	      0.31981437	     14.76566739	     -2.15796462	     -0.13928165	    -56.23204455	      3.38386480	    -15.29792041	     -4.15679688	     -5.04273955	      7.08101646	      5.73622295	     -8.66584038	      2.88177046	    -15.24778381	      0.83354359	     -6.65323495	      0.46021600	      3.90698866
      1.57533333	      6.80240056	      1.84089601	      1.59659651	      0.57996193	      1.01708131	      0.31956361	     15.09352630	     -2.06850606	     -0.14486937	    -55.41430135	      3.61111263	    -15.39512538	     -4.30056502	     -5.60047444	      6.96528641	      5.89122842	     -8.36461252	      2.98476876	    -15.21131029	      0.82985059	     -6.80971909	      0.56343599	      3.67844323
      1.57950000	      6.83285893	      1.74685205	      1.75879709	      0.58461502	      1.01724046	      0.31929482	     15.47406880	     -1.96124879	     -0.17253347	    -54.55842297	      3.86244562	    -15.46372794	     -4.37579610	     -6.05123024	      6.82478414	      6.03419368	     -8.13015596	      3.09368204	    -15.15159946	      0.82955277	     -6.88452048	      0.68936772	      3.58012527
      1.58366667	      6.91676930	      1.67753178	      1.90794370	      0.58926540	      1.01743056	      0.31904375	     15.77686529	     -1.87723003	     -0.18389379	    -53.66246930	      4.06732712	    -15.58162528	     -4.48322760	     -6.56988214	      6.70847415	      6.18490603	     -7.87670710	      3.20770824	    -15.10086168	      0.82763958	     -7.01022463	      0.78683470	      3.40454708
      1.58783333	      6.97138479	      1.60803338	      2.05008599	      0.59390872	      1.01753225	      0.31880736	     16.10535800	     -1.79726318	     -0.20133639	    -52.75147543	      4.24531958	    -15.69614031	     -4.58567222	     -7.04831378	      6.59110793	      6.32455170	     -7.63757916	      3.32513472	    -15.05086186	      0.82606950	     -7.11828254	      0.88771697	      3.25511333
      1.59200000	      7.01829676	      1.54676997	      2.18952760	      0.59854198	      1.01759079	      0.31858526	     16.42922238	     -1.72652297	     -0.21893839	    -51.81357474	      4.40304498	    -15.82867314	     -4.69637210	     -7.51632005	      6.48085832	      6.46269923	     -7.39941017	      3.44617318	    -15.00320315	      0.82352978	     -7.22024821	      0.96777255	      3.09937886
      1.59616667	      7.07569543	      1.49957549	      2.30989451	      0.60318520	      1.01762273	      0.31838527	     16.72872829	     -1.66552978	     -0.21694696	    -50.85007352	      4.50414777	    -16.02351889	     -4.90044447	     -8.00601003	      6.38643131	      6.60454421	     -7.14313535	      3.56739558	    -14.96313509	      0.81475239	     -7.33599744	      1.03327034	      2.87936405
      1.60033333	      7.10674924	      1.44110665	      2.45329939	      0.60781605	      1.01760695	      0.31815249	     17.03283015	     -1.60455899	     -0.24648093	    -49.84675370	      4.65550183	    -16.12619827	     -5.00997027	     -8.43492592	      6.27736913	      6.73800163	     -6.94976212	      3.69548435	    -14.91018102	      0.81153912	     -7.40586313	      1.12528586	      2.78990073
      1.60450000	      7.13456174	      1.38910719	      2.57963254	      0.61246005	      1.01753007	      0.31795245	     17.33136603	     -1.54730460	     -0.26810615	    -48.82800281	      4.75728767	    -16.27624557	     -5.13176542	     -8.87070241	      6.17483557	      6.86998857	     -6.73722856	      3.83288992	    -14.86026647	      0.80683362	     -7.48420712	      1.19973721	      2.65448102
      1.60866667	      7.20116646	      1.35945466	      2.67736641	      0.61709184	      1.01747680	      0.31778887	     17.57597914	     -1.50337453	     -0.25821612	    -47.78635819	      4.81888735	    -16.48252963	     -5.34006403	     -9.36368415	      6.09669337	      6.99606621	     -6.49277101	      3.95717901	    -14.81604213	      0.79396081	     -7.62190438	      1.24067547	      2.46473100
      1.61283333	      7.20430943	      1.32353272	      2.79281322	      0.62172334	      1.01730565	      0.31761717	     17.87394438	     -1.46316682	     -0.27298498	    -46.72236629	      4.90172809	    -16.61862840	     -5.52640696	     -9.76358999	      6.01109929	      7.13219840	     -6.29823654	      4.09644602	    -14.77679516	      0.78121592	     -7.68322721	      1.29136602	      2.34243724
